# xmcd CD database file
#
# Track frame offsets:
#	150
#	32940
#	59913
#	91328
#	127750
#	155816
#	178451
#	202174
#	232229
#	250138
#
# Disc length: 3652 seconds
#
# Revision: 0
# Processed by: cddbd v1.5.2PL0 Copyright (c) Steve Scherf et al.
# Submitted via: CDex 1.70beta2
#
DISCID=9b0e420a
DTITLE=高木里代子 - After Tears
DYEAR=2009
DGENRE=Jazz
TTITLE0=After Tears
TTITLE1=Manhattan Blues
TTITLE2=So Tender
TTITLE3=Spain
TTITLE4=Beautiful Love
TTITLE5=We Are All Alone
TTITLE6=What Is This Thing Called Love?
TTITLE7=Mickey's Love Ballad
TTITLE8=Wave
TTITLE9=You Must Believe In Spring
EXTD=YEAR: 2009
EXTT0=
EXTT1=
EXTT2=
EXTT3=
EXTT4=
EXTT5=
EXTT6=
EXTT7=
EXTT8=
EXTT9=
PLAYORDER=
